<svg width="233" height="130" viewBox="0 0 233 130" fill="none" xmlns="http://www.w3.org/2000/svg">
<g filter="url(#filter0_dd_127_138)">
<path fill-rule="evenodd" clip-rule="evenodd" d="M71.0779 17.7525C61.6649 24.4639 57.335 32.5942 55.6229 37.946L55.5818 38.0743C55.7109 38.3709 55.7696 38.7032 55.7389 39.0481C55.6408 40.1483 54.6694 40.9607 53.5692 40.8626C46.1973 40.2056 35.2276 41.4732 26.3087 47.2895C17.5335 53.0122 10.4994 63.2882 11.0279 81.2597C11.0603 82.3638 10.1916 83.2852 9.0875 83.3177C7.98341 83.3501 7.06205 82.4814 7.02958 81.3773C6.46288 62.1041 14.1067 50.4715 24.1237 43.939C33.1589 38.0468 43.9223 36.4295 51.808 36.7432L51.8131 36.7272C53.7514 30.6683 58.5477 21.7738 68.7558 14.4956C78.9764 7.20845 94.4737 1.64685 117.633 2.0175C163.527 2.752 179.514 24.6111 181.588 36.7435C189.475 36.4282 200.243 38.0446 209.282 43.939C219.299 50.4715 226.942 62.1041 226.376 81.3773C226.343 82.4814 225.422 83.3501 224.318 83.3177C223.214 83.2852 222.345 82.3638 222.378 81.2597C222.906 63.2882 215.872 53.0122 207.097 47.2895C198.178 41.4732 187.208 40.2056 179.836 40.8626C178.736 40.9607 177.765 40.1483 177.666 39.0481C177.64 38.755 177.679 38.4711 177.77 38.2104L177.682 37.6428C176.206 28.1096 162.572 6.73723 117.569 6.01699C95.0974 5.65735 80.4785 11.0501 71.0779 17.7525Z" fill="black"/>
<path d="M55.6229 37.946L57.0515 38.4031L57.0515 38.4031L55.6229 37.946ZM71.0779 17.7525L71.9487 18.9739L71.0779 17.7525ZM55.5818 38.0743L54.1532 37.6172C54.0423 37.9638 54.0612 38.3389 54.2063 38.6726L55.5818 38.0743ZM55.7389 39.0481L54.2448 38.9149V38.9149L55.7389 39.0481ZM53.5692 40.8626L53.4361 42.3567L53.5692 40.8626ZM26.3087 47.2895L25.4893 46.0331L26.3087 47.2895ZM11.0279 81.2597L12.5272 81.2157L11.0279 81.2597ZM9.0875 83.3177L9.13157 84.817H9.13159L9.0875 83.3177ZM7.02958 81.3773L5.53023 81.4214L7.02958 81.3773ZM24.1237 43.939L24.9431 45.1955L24.1237 43.939ZM51.808 36.7432L51.7484 38.242C52.4223 38.2688 53.0312 37.8425 53.2367 37.2001L51.808 36.7432ZM51.8131 36.7272L50.3844 36.2702L50.3844 36.2703L51.8131 36.7272ZM68.7558 14.4956L67.885 13.2742L68.7558 14.4956ZM117.633 2.0175L117.657 0.517691L117.633 2.0175ZM181.588 36.7435L180.11 36.9964C180.237 37.7392 180.895 38.2724 181.648 38.2423L181.588 36.7435ZM209.282 43.939L208.462 45.1955L209.282 43.939ZM226.376 81.3773L224.876 81.3332V81.3332L226.376 81.3773ZM224.318 83.3177L224.274 84.817H224.274L224.318 83.3177ZM222.378 81.2597L223.877 81.3038V81.3038L222.378 81.2597ZM207.097 47.2895L206.277 48.546H206.277L207.097 47.2895ZM179.836 40.8626L179.969 42.3567L179.836 40.8626ZM177.666 39.0481L179.161 38.9149L177.666 39.0481ZM177.77 38.2104L179.186 38.7063C179.267 38.4736 179.29 38.2244 179.252 37.9808L177.77 38.2104ZM177.682 37.6428L176.2 37.8724V37.8724L177.682 37.6428ZM117.569 6.01699L117.593 4.51718L117.569 6.01699ZM57.0515 38.4031C58.6788 33.3166 62.8338 25.4727 71.9487 18.9739L70.2071 16.5312C60.496 23.455 55.9912 31.8719 54.1942 37.489L57.0515 38.4031ZM57.0105 38.5313L57.0515 38.4031L54.1942 37.489L54.1532 37.6172L57.0105 38.5313ZM57.233 39.1813C57.2865 38.5802 57.1839 37.9969 56.9574 37.4759L54.2063 38.6726C54.2378 38.7449 54.2527 38.8261 54.2448 38.9149L57.233 39.1813ZM53.4361 42.3567C55.3614 42.5283 57.0613 41.1066 57.233 39.1813L54.2448 38.9149C54.2203 39.19 53.9774 39.3931 53.7024 39.3686L53.4361 42.3567ZM27.1281 48.546C35.6892 42.9629 46.2962 41.7203 53.4361 42.3567L53.7024 39.3686C46.0984 38.6908 34.766 39.9834 25.4893 46.0331L27.1281 48.546ZM12.5272 81.2157C12.0131 63.7325 18.8183 53.9651 27.1281 48.546L25.4893 46.0331C16.2486 52.0593 8.98571 62.844 9.5285 81.3038L12.5272 81.2157ZM9.13159 84.817C11.0637 84.7602 12.584 83.1478 12.5272 81.2157L9.5285 81.3038C9.53662 81.5798 9.31944 81.8102 9.0434 81.8183L9.13159 84.817ZM5.53023 81.4214C5.58704 83.3536 7.19943 84.8738 9.13157 84.817L9.04342 81.8183C8.76738 81.8264 8.53705 81.6092 8.52893 81.3332L5.53023 81.4214ZM23.3043 42.6826C12.8215 49.5189 4.94918 61.6603 5.53023 81.4214L8.52893 81.3332C7.97657 62.548 15.3919 51.4242 24.9431 45.1955L23.3043 42.6826ZM51.8676 35.2444C43.7689 34.9222 32.6719 36.5736 23.3043 42.6826L24.9431 45.1955C33.646 39.52 44.0758 37.9368 51.7484 38.242L51.8676 35.2444ZM50.3844 36.2703L50.3793 36.2862L53.2367 37.2001L53.2418 37.1842L50.3844 36.2703ZM67.885 13.2742C57.3786 20.7651 52.4076 29.9461 50.3844 36.2702L53.2417 37.1843C55.0953 31.3904 59.7167 22.7825 69.6266 15.7169L67.885 13.2742ZM117.657 0.517691C94.2399 0.142918 78.4132 5.76781 67.885 13.2742L69.6266 15.7169C79.5397 8.64908 94.7076 3.15079 117.609 3.51731L117.657 0.517691ZM183.067 36.4907C180.832 23.4227 164.019 1.25968 117.657 0.517691L117.609 3.51731C163.035 4.24433 178.195 25.7994 180.11 36.9964L183.067 36.4907ZM210.101 42.6826C200.73 36.5713 189.628 34.9209 181.528 35.2447L181.648 38.2423C189.322 37.9356 199.756 39.5178 208.462 45.1955L210.101 42.6826ZM227.875 81.4214C228.456 61.6603 220.584 49.5189 210.101 42.6826L208.462 45.1955C218.013 51.4242 225.429 62.548 224.876 81.3332L227.875 81.4214ZM224.274 84.817C226.206 84.8738 227.818 83.3536 227.875 81.4214L224.876 81.3332C224.868 81.6092 224.638 81.8264 224.362 81.8183L224.274 84.817ZM220.878 81.2156C220.821 83.1478 222.342 84.7602 224.274 84.817L224.362 81.8183C224.086 81.8102 223.869 81.5798 223.877 81.3038L220.878 81.2156ZM206.277 48.546C214.587 53.9651 221.392 63.7325 220.878 81.2157L223.877 81.3038C224.42 62.844 217.157 52.0593 207.916 46.0331L206.277 48.546ZM179.969 42.3567C187.109 41.7203 197.716 42.9629 206.277 48.546L207.916 46.0331C198.639 39.9834 187.307 38.6908 179.703 39.3686L179.969 42.3567ZM176.172 39.1813C176.344 41.1066 178.044 42.5283 179.969 42.3567L179.703 39.3686C179.428 39.3931 179.185 39.19 179.161 38.9149L176.172 39.1813ZM176.354 37.7145C176.194 38.1729 176.127 38.6711 176.172 39.1813L179.161 38.9149C179.154 38.8389 179.164 38.7693 179.186 38.7063L176.354 37.7145ZM176.2 37.8724L176.288 38.44L179.252 37.9808L179.165 37.4132L176.2 37.8724ZM117.545 7.51679C162.075 8.22947 174.87 29.2891 176.2 37.8724L179.165 37.4132C177.541 26.9301 163.069 5.24499 117.593 4.51718L117.545 7.51679ZM71.9487 18.9739C81.0418 12.4907 95.3314 7.16128 117.545 7.51679L117.593 4.51718C94.8635 4.15341 79.9152 9.60949 70.2071 16.5312L71.9487 18.9739Z" fill="black"/>
</g>
<g filter="url(#filter1_d_127_138)">
<ellipse cx="63.7563" cy="96.2161" rx="25.5532" ry="25.5601" fill="#25CCA0" fill-opacity="0.8" shape-rendering="crispEdges"/>
</g>
<path d="M87.4847 87.0874C84.899 81.6103 76.5334 70.7472 63.7568 71.1124C50.9802 71.4775 43.8314 79.4802 41.854 83.4359C37.8994 88.7609 33.3667 102.606 46.8734 115.386C60.3801 128.166 76.8376 118.885 83.378 112.647C84.7469 110.517 87.4847 105.345 87.4847 101.693C87.4847 98.0417 73.4913 96.216 66.4946 95.7595" stroke="black" stroke-width="7" stroke-linecap="round"/>
<g filter="url(#filter2_d_127_138)">
<ellipse cx="173.27" cy="96.2161" rx="25.5532" ry="25.5601" fill="#25CCA0" fill-opacity="0.8" shape-rendering="crispEdges"/>
</g>
<path d="M152.28 82.9795C169.072 62.1663 187.872 74.3073 195.173 82.9795C198.367 86.9352 202.839 97.9504 195.173 110.365C184.586 125.701 168.555 122.232 161.862 118.581C154.409 114.93 142.059 102.697 152.28 82.9795Z" stroke="black" stroke-width="7" stroke-linecap="square"/>
<defs>
<filter id="filter0_dd_127_138" x="0.5" y="0.5" width="232.405" height="97.3186" filterUnits="userSpaceOnUse" color-interpolation-filters="sRGB">
<feFlood flood-opacity="0" result="BackgroundImageFix"/>
<feColorMatrix in="SourceAlpha" type="matrix" values="0 0 0 0 0 0 0 0 0 0 0 0 0 0 0 0 0 0 127 0" result="hardAlpha"/>
<feOffset dy="4"/>
<feGaussianBlur stdDeviation="2"/>
<feComposite in2="hardAlpha" operator="out"/>
<feColorMatrix type="matrix" values="0 0 0 0 0 0 0 0 0 0 0 0 0 0 0 0 0 0 0.25 0"/>
<feBlend mode="normal" in2="BackgroundImageFix" result="effect1_dropShadow_127_138"/>
<feColorMatrix in="SourceAlpha" type="matrix" values="0 0 0 0 0 0 0 0 0 0 0 0 0 0 0 0 0 0 127 0" result="hardAlpha"/>
<feOffset dy="8"/>
<feGaussianBlur stdDeviation="2.5"/>
<feComposite in2="hardAlpha" operator="out"/>
<feColorMatrix type="matrix" values="0 0 0 0 0.143483 0 0 0 0 0.800833 0 0 0 0 0.62554 0 0 0 0.8 0"/>
<feBlend mode="normal" in2="effect1_dropShadow_127_138" result="effect2_dropShadow_127_138"/>
<feBlend mode="normal" in="SourceGraphic" in2="effect2_dropShadow_127_138" result="shape"/>
</filter>
<filter id="filter1_d_127_138" x="34.2031" y="70.656" width="59.1064" height="59.1201" filterUnits="userSpaceOnUse" color-interpolation-filters="sRGB">
<feFlood flood-opacity="0" result="BackgroundImageFix"/>
<feColorMatrix in="SourceAlpha" type="matrix" values="0 0 0 0 0 0 0 0 0 0 0 0 0 0 0 0 0 0 127 0" result="hardAlpha"/>
<feOffset dy="4"/>
<feGaussianBlur stdDeviation="2"/>
<feComposite in2="hardAlpha" operator="out"/>
<feColorMatrix type="matrix" values="0 0 0 0 0 0 0 0 0 0 0 0 0 0 0 0 0 0 0.25 0"/>
<feBlend mode="normal" in2="BackgroundImageFix" result="effect1_dropShadow_127_138"/>
<feBlend mode="normal" in="SourceGraphic" in2="effect1_dropShadow_127_138" result="shape"/>
</filter>
<filter id="filter2_d_127_138" x="143.717" y="70.656" width="59.1064" height="59.1201" filterUnits="userSpaceOnUse" color-interpolation-filters="sRGB">
<feFlood flood-opacity="0" result="BackgroundImageFix"/>
<feColorMatrix in="SourceAlpha" type="matrix" values="0 0 0 0 0 0 0 0 0 0 0 0 0 0 0 0 0 0 127 0" result="hardAlpha"/>
<feOffset dy="4"/>
<feGaussianBlur stdDeviation="2"/>
<feComposite in2="hardAlpha" operator="out"/>
<feColorMatrix type="matrix" values="0 0 0 0 0 0 0 0 0 0 0 0 0 0 0 0 0 0 0.25 0"/>
<feBlend mode="normal" in2="BackgroundImageFix" result="effect1_dropShadow_127_138"/>
<feBlend mode="normal" in="SourceGraphic" in2="effect1_dropShadow_127_138" result="shape"/>
</filter>
</defs>
</svg>
